<svg id="Capa_1" enable-background="new 0 0 512 512" height="512" viewBox="0 0 512 512" width="512" xmlns="http://www.w3.org/2000/svg"><g><path d="m216 416.04c11.046 0 20-8.954 20-20v-40c0-11.028 8.972-20 20-20s20 8.972 20 20v40c0 11.046 8.954 20 20 20s20-8.954 20-20v-40c0-33.084-26.916-60-60-60s-60 26.916-60 60v40c0 11.046 8.954 20 20 20z"/><path d="m489.531 189.252s-196.009-160.021-196.062-160.063c-22.062-17.638-52.877-17.638-74.938 0-.053.042-196.061 160.063-196.061 160.063-25.875 20.741-29.977 58.437-9.31 84.25 20.756 25.989 58.569 30.033 84.346 9.376.054-.044 158.494-129.761 158.494-129.761s158.443 129.719 158.498 129.763c25.72 20.602 63.546 16.668 84.327-9.359 20.751-25.917 16.498-63.595-9.294-84.269zm-21.948 59.29c-6.874 8.61-19.418 10.002-28.014 3.17l-170.9-139.917c-7.369-6.032-17.969-6.032-25.338 0l-170.903 139.919c-8.533 6.781-21.093 5.491-28.028-3.194-6.899-8.617-5.521-21.183 3.119-28.083.056-.044 196.058-160.061 196.058-160.061 7.327-5.807 17.52-5.807 24.847 0 0 0 196.003 160.016 196.058 160.061 8.611 6.878 10.046 19.431 3.101 28.105z"/><path d="m100 329.157c-11.046 0-20 8.954-20 20v46.883c0 55.14 44.86 100 100 100h152c55.14 0 100-44.86 100-100v-46.89c0-11.046-8.954-20-20-20s-20 8.954-20 20v46.89c0 33.084-26.916 60-60 60h-152c-33.084 0-60-26.916-60-60v-46.883c0-11.046-8.954-20-20-20z"/></g></svg>